<svg width="150" height="150" viewBox="0 0 150 150" fill="none" xmlns="http://www.w3.org/2000/svg" style="width: 460px; height: 460px; transform: rotateY(0deg);"><style>
     .price5-1 {animation:price5-1 6s infinite;}
     .price5-2 {animation:price5-2 6s infinite;}
     .price5-3 {animation:price5-3 6s infinite;}

     @keyframes price5-1 {
         0%{transform: translate3d(0, -4px, 0);}
         15%{transform: translate3d(0, 4px, 0);}
         100%{transform: translate3d(0, -4px, 0);}
     }
     @keyframes price5-2 {
         0%{transform: translate3d(0, -4px, 0);}
         30%{transform: translate3d(0, 4px, 0);}
         100%{transform: translate3d(0, -4px, 0);}
     }
     @keyframes price5-3 {
         0%{transform: translate3d(0, -4px, 0);}
         45%{transform: translate3d(0, 4px, 0);}
         100%{transform: translate3d(0, -4px, 0);}
     }

     @media (prefers-reduced-motion: reduce) {
         .price5-1, .price5-2, .price5-3{
             animation: none;
         }
     }
    </style><g class="price5-1" style="animation-duration: 6s;"><path class="strokeCls1" d="M43.6027 15.7539H5.8995C4.02201 15.7539 2.5 17.2759 2.5 19.1534V70.5947C2.5 72.4722 4.02201 73.9942 5.8995 73.9942H43.6027C45.4802 73.9942 47.0022 72.4722 47.0022 70.5947V19.1534C47.0022 17.2759 45.4802 15.7539 43.6027 15.7539Z" stroke="#222222" stroke-width="1.0px" stroke-miterlimit="10"></path><path class="fillCls1" d="M43.6027 15.7539H5.8995C4.02201 15.7539 2.5 17.2759 2.5 19.1534V70.5947C2.5 72.4722 4.02201 73.9942 5.8995 73.9942H43.6027C45.4802 73.9942 47.0022 72.4722 47.0022 70.5947V19.1534C47.0022 17.2759 45.4802 15.7539 43.6027 15.7539Z" fill="#FFFFFF" stroke-width="1.0px"></path><path class="strokeCls3" d="M27.2033 34.499C25.9372 37.1017 25.0933 39.8893 24.7034 42.7572C24.5405 43.9513 24.4496 45.1852 23.9298 46.2732C23.4459 47.2836 22.6277 48.0894 21.9933 49.0136C21.3588 49.9379 20.9024 51.113 21.2745 52.1698C21.3202 52.3314 21.4153 52.4748 21.5463 52.5798C21.9687 52.8715 22.5112 52.3573 22.6372 51.8601C22.7402 51.4238 22.7165 50.967 22.5689 50.5436C22.4213 50.1202 22.1559 49.7478 21.8039 49.4701" stroke="#000000" stroke-width="1.0px" stroke-linecap="round" stroke-linejoin="round"></path><path class="strokeCls3" d="M27.203 34.499C25.9369 37.1017 25.093 39.8893 24.7031 42.7572C24.5402 43.9513 24.4493 45.1852 23.9294 46.2732C23.4455 47.2836 22.6274 48.0894 21.9929 49.0136C21.8803 49.1794 21.7723 49.3517 21.6738 49.5307" stroke="#000000" stroke-width="1.0px" stroke-linecap="round" stroke-linejoin="round"></path><path class="strokeCls3" d="M18.6406 45.5487C19.8243 45.435 21.0129 45.3812 22.202 45.3877C22.4642 45.3777 22.7264 45.4058 22.9804 45.471C23.107 45.5048 23.2253 45.5642 23.328 45.6457C23.4306 45.7272 23.5154 45.8289 23.577 45.9445C23.7143 46.24 23.6338 46.5884 23.5202 46.8914" stroke="#000000" stroke-width="1.0px" stroke-linecap="round" stroke-linejoin="round"></path><path class="strokeCls3" d="M23.5449 46.9358C23.687 46.3383 24.2182 45.8942 24.7968 45.6868C25.3753 45.4794 26.0041 45.4699 26.6187 45.4623L28.9623 45.4349C29.6072 45.4273 30.272 45.415 30.8666 45.1641" stroke="#000000" stroke-width="1.0px" stroke-linecap="round" stroke-linejoin="round"></path><path class="strokeCls3" d="M17.2016 24.6579C16.6969 25.3548 17.0454 26.4571 17.8096 26.8491C18.5737 27.2411 19.5718 26.9864 20.1646 26.3633C20.8625 25.6295 21.0414 24.4912 20.8189 23.5225C20.7594 23.2425 20.6073 22.9906 20.3871 22.8076C19.7167 22.2707 18.9411 22.8313 18.6732 23.4903C18.2319 24.5755 18.818 25.9211 19.8502 26.4722C20.8824 27.0233 22.2175 26.8264 23.1597 26.1266C24.1019 25.4268 24.6531 24.2905 24.8083 23.1305C24.9248 22.2555 24.5972 21.104 23.7165 21.0472C23.1124 21.0056 22.6209 21.5349 22.3425 22.0737C21.7876 23.1456 21.7043 24.5045 22.3236 25.5414C22.9429 26.5783 24.332 27.1445 25.44 26.6711C26.3083 26.297 26.8035 25.2308 26.6037 24.3416C26.5862 24.2689 26.5472 24.2031 26.4917 24.1529C26.4362 24.1026 26.3669 24.0703 26.2928 24.0601C26.2186 24.0498 26.1432 24.0622 26.0762 24.0955C26.0092 24.1289 25.9538 24.1816 25.9172 24.2469C25.6417 24.7469 25.4437 25.281 25.5678 25.8719C25.6023 26.0601 25.6824 26.2369 25.8011 26.387C25.9198 26.5371 26.0734 26.6557 26.2486 26.7326C26.8168 26.9684 27.3177 26.619 27.6747 26.2213C28.2759 25.5425 28.634 24.683 28.6927 23.7782C28.6977 23.6957 28.6749 23.614 28.6278 23.5461C28.5807 23.4783 28.5121 23.4283 28.4331 23.4042C28.354 23.3801 28.2692 23.3834 28.1923 23.4134C28.1153 23.4435 28.0508 23.4986 28.009 23.5699C27.8714 23.8199 27.7906 24.0971 27.7721 24.3818C27.7536 24.6665 27.7979 24.9518 27.902 25.2175C28.2363 26.0338 29.0743 26.5698 29.9436 26.7194C30.8129 26.869 31.7087 26.6815 32.5382 26.3804" stroke="#000000" stroke-width="1.0px" stroke-linecap="round" stroke-linejoin="round"></path><path class="strokeCls3" d="M18.1836 60.6032C19.0148 60.0461 19.7398 59.3451 20.3246 58.5332C20.2747 60.7307 20.2249 62.9289 20.175 65.1277" stroke="#000000" stroke-width="1.0px" stroke-linecap="round" stroke-linejoin="round"></path><path class="strokeCls3" d="M24.336 64.8513C23.9184 65.0094 23.4326 64.7642 23.1826 64.3939C22.9326 64.0237 22.8701 63.5606 22.8407 63.1156C22.7686 62.0253 22.857 60.9303 23.103 59.8657C23.2072 59.4149 23.3644 58.9339 23.7479 58.6744C24.2337 58.3468 24.9335 58.5135 25.352 58.9225C25.7706 59.3316 25.9609 59.9225 26.0613 60.4992C26.2175 61.3934 26.1976 62.3095 26.0026 63.196C25.8946 63.6866 25.7261 64.178 25.4031 64.5634C25.0802 64.9488 24.5784 65.2121 24.0774 65.1439" stroke="#000000" stroke-width="1.0px" stroke-linecap="round" stroke-linejoin="round"></path><path class="strokeCls3" d="M31.3169 59.8905C31.2582 59.1235 30.4988 58.4834 29.7337 58.5553C28.9685 58.6273 28.3398 59.3953 28.4222 60.1594C28.4847 60.7276 28.8757 61.2124 29.3066 61.5931C29.7374 61.9738 30.2261 62.2948 30.5925 62.737C30.959 63.1792 31.19 63.7957 30.9893 64.3345C30.7715 64.9168 30.085 65.235 29.4685 65.1564C28.8521 65.0778 28.3142 64.6744 27.9316 64.1839" stroke="#000000" stroke-width="1.0px" stroke-linecap="round" stroke-linejoin="round"></path><path class="strokeCls3" d="M30.3853 57.1895C29.8449 60.317 29.5165 63.4775 29.4023 66.6493" stroke="#000000" stroke-width="1.0px" stroke-linecap="round" stroke-linejoin="round"></path></g><g class="price5-2" style="animation-duration: 6s;"><path class="strokeCls1" d="M93.8527 8.02344H56.1495C54.272 8.02344 52.75 9.54544 52.75 11.4229V62.8642C52.75 64.7417 54.272 66.2637 56.1495 66.2637H93.8527C95.7302 66.2637 97.2522 64.7417 97.2522 62.8642V11.4229C97.2522 9.54544 95.7302 8.02344 93.8527 8.02344Z" stroke="#222222" stroke-width="1.0px" stroke-miterlimit="10"></path><path class="fillCls1" d="M93.8527 8.02344H56.1495C54.272 8.02344 52.75 9.54544 52.75 11.4229V62.8642C52.75 64.7417 54.272 66.2637 56.1495 66.2637H93.8527C95.7302 66.2637 97.2522 64.7417 97.2522 62.8642V11.4229C97.2522 9.54544 95.7302 8.02344 93.8527 8.02344Z" fill="#FFFFFF" stroke-width="1.0px"></path><path class="strokeCls3" d="M69.9746 19.2741C70.4099 19.341 70.8542 19.3204 71.2815 19.2136C71.7088 19.1067 72.1105 18.9158 72.4632 18.652C73.4016 17.9512 73.9565 16.8159 74.1118 15.6559C74.2292 14.7809 73.9015 13.6294 73.0209 13.5726C72.4158 13.531 71.9253 14.0603 71.646 14.5991C71.091 15.671 71.0077 17.0299 71.627 18.0668C72.2463 19.1037 73.6355 19.6766 74.7443 19.2031C75.6127 18.8291 76.1079 17.7628 75.9081 16.8736C75.8908 16.8008 75.8519 16.7349 75.7966 16.6846C75.7412 16.6343 75.6719 16.6019 75.5977 16.5916C75.5236 16.5814 75.4481 16.5938 75.3811 16.6272C75.3142 16.6607 75.2589 16.7135 75.2225 16.7789C74.946 17.2789 74.7491 17.813 74.8722 18.4039C74.9067 18.5922 74.9869 18.7692 75.1057 18.9193C75.2246 19.0693 75.3785 19.1879 75.5539 19.2646C76.1221 19.5004 76.6221 19.151 76.9744 18.7533C77.5758 18.0746 77.9343 17.2151 77.9933 16.3102C77.9983 16.2278 77.9755 16.146 77.9283 16.0782C77.8812 16.0103 77.8126 15.9603 77.7336 15.9362C77.6546 15.9122 77.5698 15.9154 77.4928 15.9455C77.4159 15.9755 77.3513 16.0306 77.3096 16.1019C77.1716 16.3526 77.0904 16.6306 77.0719 16.9162C77.0534 17.2017 77.098 17.4879 77.2026 17.7543C77.5368 18.5705 78.3749 19.1065 79.2442 19.2561C80.1134 19.4057 81.0092 19.2182 81.8388 18.9171" stroke="#000000" stroke-width="1.0px" stroke-linecap="round" stroke-linejoin="round"></path><path class="strokeCls3" d="M74.418 57.3777C74.0004 57.5358 73.5146 57.2905 73.2646 56.9203C73.0146 56.55 72.9521 56.087 72.9228 55.6419C72.8507 54.5516 72.939 53.4567 73.1851 52.392C73.2892 51.9413 73.4464 51.4603 73.8299 51.2008C74.3157 50.8732 75.0146 51.0398 75.434 51.4489C75.8535 51.858 76.0429 52.4489 76.1433 53.0255C76.2996 53.9197 76.2796 54.8359 76.0846 55.7224C75.9766 56.2129 75.8081 56.7044 75.4852 57.0898C75.1623 57.4752 74.6604 57.7384 74.1595 57.6703" stroke="#000000" stroke-width="1.0px" stroke-linecap="round" stroke-linejoin="round"></path><path class="strokeCls3" d="M81.397 52.4179C81.3383 51.6508 80.5789 51.0107 79.8137 51.0827C79.0486 51.1546 78.4199 51.9226 78.5022 52.6868C78.5647 53.255 78.9558 53.7398 79.3867 54.1205C79.8175 54.5011 80.3062 54.8221 80.6726 55.2644C81.0391 55.7066 81.2701 56.323 81.0694 56.8618C80.8516 57.4442 80.1651 57.7624 79.5477 57.6838C78.9303 57.6052 78.3943 57.2018 78.0117 56.7122" stroke="#000000" stroke-width="1.0px" stroke-linecap="round" stroke-linejoin="round"></path><path class="strokeCls3" d="M80.4653 49.7158C79.9245 52.8433 79.5961 56.0038 79.4824 59.1757" stroke="#000000" stroke-width="1.0px" stroke-linecap="round" stroke-linejoin="round"></path><path class="fillCls3" d="M69.6716 45.2546H80.2082C80.2801 45.254 80.3494 45.2272 80.403 45.1793C80.4567 45.1314 80.4911 45.0656 80.4998 44.9942L81.3729 38.6289C81.3792 38.5865 81.3765 38.5433 81.3647 38.5021C81.353 38.4609 81.3326 38.4227 81.3049 38.3901C81.2772 38.3574 81.2428 38.3311 81.204 38.3128C81.1653 38.2945 81.1231 38.2848 81.0803 38.2842H68.5807C68.5371 38.285 68.4942 38.2953 68.4549 38.3143C68.4156 38.3334 68.3809 38.3607 68.3533 38.3945C68.3256 38.4283 68.3056 38.4677 68.2947 38.5099C68.2838 38.5522 68.2822 38.5963 68.29 38.6393L69.3819 45.0046C69.3928 45.0738 69.4279 45.1368 69.481 45.1826C69.534 45.2284 69.6016 45.2539 69.6716 45.2546V45.2546Z" fill="#000000" stroke-width="1.0px"></path><path class="strokeCls3" d="M70.8086 29.7324L72.6135 32.3838C73.0064 32.9624 73.4041 33.5476 73.6551 34.2029C73.8654 34.795 74 35.4113 74.0556 36.0371C74.1853 37.1658 74.2119 38.304 74.1352 39.4376" stroke="#000000" stroke-width="1.0px" stroke-linecap="round" stroke-linejoin="round"></path><path class="strokeCls3" d="M74.9358 39.1602C74.6054 36.6471 75.808 34.2078 76.1214 31.6918C76.3686 29.7136 76.0816 27.6019 76.9235 25.8037" stroke="#000000" stroke-width="1.0px" stroke-linecap="round" stroke-linejoin="round"></path><path class="strokeCls3" d="M80.6165 30.2803C79.412 32.2073 77.252 33.4383 76.3638 35.5386C75.8846 36.6749 75.8326 37.9372 75.7871 39.171" stroke="#000000" stroke-width="1.0px" stroke-linecap="round" stroke-linejoin="round"></path><path class="strokeCls3" d="M68.2089 51.2646C68.6653 51.256 69.1066 51.1017 69.5592 51.0449C70.0119 50.9881 70.5175 51.0506 70.8385 51.3943C71.2779 51.8678 71.1775 52.7011 70.7685 53.201C70.3594 53.701 69.7316 53.9292 69.1217 54.0656C69.9105 53.9302 70.7211 54.5921 70.8669 55.4282C70.9291 55.8429 70.8601 56.2666 70.6696 56.6401C70.4791 57.0137 70.1766 57.3183 69.8045 57.5115C69.0772 57.8647 68.1739 57.7009 67.5508 57.1678" stroke="#000000" stroke-width="1.0px" stroke-linecap="round" stroke-linejoin="round"></path></g><g class="price5-3" style="animation-duration: 6s;"><path class="strokeCls1" d="M144.101 15.7539H106.398C104.52 15.7539 102.998 17.2759 102.998 19.1534V70.5947C102.998 72.4722 104.52 73.9942 106.398 73.9942H144.101C145.978 73.9942 147.5 72.4722 147.5 70.5947V19.1534C147.5 17.2759 145.978 15.7539 144.101 15.7539Z" stroke="#222222" stroke-width="1.0px" stroke-miterlimit="10"></path><path class="fillCls1" d="M144.101 15.7539H106.398C104.52 15.7539 102.998 17.2759 102.998 19.1534V70.5947C102.998 72.4722 104.52 73.9942 106.398 73.9942H144.101C145.978 73.9942 147.5 72.4722 147.5 70.5947V19.1534C147.5 17.2759 145.978 15.7539 144.101 15.7539Z" fill="#FFFFFF" stroke-width="1.0px"></path><path class="strokeCls3" d="M118.926 26.849C119.689 27.2439 120.653 26.9504 121.281 26.3633C121.684 25.9845 122.286 25.369 121.936 24.3169C121.538 23.1247 119.91 23.4827 119.789 24.2857C119.616 25.4428 120.139 25.9305 120.967 26.4703C121.947 27.1095 123.335 26.8244 124.282 26.1246C125.229 25.4249 125.774 24.2885 125.929 23.1285C126.047 22.2536 125.719 21.1021 124.838 21.0453C124.233 21.0036 123.743 21.5329 123.463 22.0718C122.909 23.1437 122.825 24.5025 123.445 25.5394C124.064 26.5763 125.453 27.1492 126.562 26.6758C127.43 26.3017 127.925 25.2355 127.726 24.3463C127.708 24.2735 127.669 24.2076 127.614 24.1573C127.559 24.1069 127.489 24.0745 127.415 24.0643C127.341 24.0541 127.266 24.0665 127.199 24.0999C127.132 24.1333 127.076 24.1862 127.04 24.2516C126.764 24.7516 126.567 25.2857 126.69 25.8765C126.724 26.0649 126.804 26.2418 126.923 26.3919C127.042 26.542 127.196 26.6606 127.371 26.7373C127.94 26.9731 129.834 27.0394 130.96 26.2203" stroke="#000000" stroke-width="1.0px" stroke-linecap="round" stroke-linejoin="round"></path><path class="strokeCls3" d="M116.344 60.6032C117.175 60.0461 117.901 59.3451 118.487 58.5332C118.437 60.7307 118.388 62.9289 118.337 65.1277" stroke="#000000" stroke-width="1.0px" stroke-linecap="round" stroke-linejoin="round"></path><path class="strokeCls3" d="M126.559 64.8513C126.141 65.0094 125.655 64.7642 125.405 64.3939C125.155 64.0237 125.093 63.5606 125.063 63.1156C124.991 62.0253 125.08 60.9303 125.326 59.8657C125.43 59.4149 125.587 58.9339 125.971 58.6744C126.456 58.3468 127.156 58.5135 127.575 58.9225C127.993 59.3316 128.184 59.9225 128.285 60.4992C128.44 61.3935 128.42 62.3095 128.225 63.196C128.117 63.6866 127.949 64.178 127.626 64.5634C127.303 64.9488 126.801 65.2121 126.3 65.1439" stroke="#000000" stroke-width="1.0px" stroke-linecap="round" stroke-linejoin="round"></path><path class="strokeCls3" d="M121.758 64.8513C121.341 65.0094 120.854 64.7642 120.604 64.3939C120.354 64.0237 120.292 63.5606 120.262 63.1156C120.191 62.0253 120.279 60.9304 120.525 59.8657C120.629 59.4149 120.786 58.9339 121.17 58.6744C121.655 58.3468 122.355 58.5135 122.779 58.9225C123.204 59.3316 123.387 59.9225 123.489 60.4992C123.644 61.3935 123.624 62.3095 123.429 63.196C123.321 63.6866 123.152 64.178 122.83 64.5634C122.507 64.9488 122.005 65.2121 121.504 65.1439" stroke="#000000" stroke-width="1.0px" stroke-linecap="round" stroke-linejoin="round"></path><path class="strokeCls3" d="M133.538 59.8905C133.479 59.1235 132.719 58.4834 131.954 58.5553C131.189 58.6273 130.56 59.3953 130.643 60.1594C130.705 60.7276 131.096 61.2124 131.527 61.5931C131.958 61.9738 132.447 62.2948 132.813 62.737C133.18 63.1792 133.411 63.7957 133.21 64.3345C132.992 64.9168 132.306 65.235 131.689 65.1564C131.073 65.0778 130.535 64.6744 130.152 64.1839" stroke="#000000" stroke-width="1.0px" stroke-linecap="round" stroke-linejoin="round"></path><path class="strokeCls3" d="M132.604 57.1895C132.064 60.317 131.735 63.4775 131.621 66.6493" stroke="#000000" stroke-width="1.0px" stroke-linecap="round" stroke-linejoin="round"></path><path class="fillCls3" d="M124.512 40.1654C124.968 44.3992 125.218 48.6339 125.581 53.0371C126.407 48.5382 126.357 44.4266 126.986 40.1313C126.03 40.0546 125.471 40.2421 124.512 40.1654" fill="#000000" stroke-width="1.0px"></path><path class="fillCls3" d="M124.512 52.984C124.968 48.7502 125.218 44.5156 125.581 40.1123C126.407 44.6112 126.357 48.7228 126.986 53.0181C126.03 53.0948 125.471 52.9073 124.512 52.984" fill="#000000" stroke-width="1.0px"></path><path class="strokeCls3" d="M125.745 41.1459C125.797 40.216 125.1 39.3874 124.287 38.913C123.475 38.4386 122.54 38.2198 121.673 37.8524C120.483 37.3477 119.43 36.5627 118.499 35.6745C117.568 34.7862 116.75 33.7863 115.934 32.792" stroke="#000000" stroke-width="1.0px" stroke-linecap="round" stroke-linejoin="round"></path><path class="strokeCls3" d="M122.899 38.2743C123.037 37.4798 122.78 36.6645 122.376 35.9619C121.972 35.2593 121.429 34.6532 120.925 34.0169C120.422 33.3805 119.656 31.8702 119.445 31.0918" stroke="#000000" stroke-width="1.0px" stroke-linecap="round" stroke-linejoin="round"></path><path class="strokeCls3" d="M121.547 37.8161C119.781 37.9618 118.004 37.8636 116.266 37.5244" stroke="#000000" stroke-width="1.0px" stroke-linecap="round" stroke-linejoin="round"></path><path class="strokeCls3" d="M125.746 41.146C126.125 38.8867 127.78 37.2589 129.074 35.8707C130.367 34.4825 131.863 33.2505 133.595 32.4551" stroke="#000000" stroke-width="1.0px" stroke-linecap="round" stroke-linejoin="round"></path><path class="strokeCls3" d="M127.102 38.3186C127.743 38.5667 128.471 38.4133 129.113 38.1709C129.755 37.9285 130.367 37.5857 131.041 37.4484C132.005 37.2505 133.062 37.4711 133.948 37.0469" stroke="#000000" stroke-width="1.0px" stroke-linecap="round" stroke-linejoin="round"></path><path class="strokeCls3" d="M128.92 36.0329C128.662 34.3909 129.617 32.712 129.242 31.0918" stroke="#000000" stroke-width="1.0px" stroke-linecap="round" stroke-linejoin="round"></path><path class="strokeCls3" d="M126.349 39.1906C126.564 38.0031 126.218 36.7749 125.663 35.7011C125.108 34.6273 124.348 33.6718 123.662 32.6709" stroke="#000000" stroke-width="1.0px" stroke-linecap="round" stroke-linejoin="round"></path><path class="strokeCls3" d="M125.473 35.2355C126.127 34.6913 126.637 33.9936 126.957 33.2044C127.276 32.4153 127.396 31.5593 127.304 30.7129" stroke="#000000" stroke-width="1.0px" stroke-linecap="round" stroke-linejoin="round"></path></g><path class="fillCls4" d="M95.3913 141.977C94.5268 138.946 89.2363 130.737 86.8538 125.766C84.4713 120.795 74.6383 89.506 74.1014 85.5895C73.5645 81.6729 74.5332 73.0255 74.7491 69.6753C74.965 66.325 81.0178 67.4026 82.4193 72.7055C83.8207 78.0083 84.2563 84.5933 85.3368 87.4038C86.4172 90.2143 87.1738 90.862 87.1738 90.862C87.1738 90.862 85.8775 74.4346 85.2288 69.6791C84.5802 64.9236 81.6665 49.6817 82.3142 45.6837C82.9619 41.6858 84.8283 40.6583 86.6701 40.7663C88.5119 40.8743 90.9644 42.5494 92.5856 49.5728C94.2067 56.5962 98.2056 74.5378 98.2056 74.5378C98.2056 74.5378 99.2861 71.5076 100.907 69.6743C102.528 67.8411 108.364 68.8098 109.878 72.16C109.878 72.16 112.795 71.2955 114.74 72.7007C116.685 74.106 118.415 78.1049 118.415 78.1049C118.415 78.1049 121.009 77.996 123.062 79.7251C125.115 81.4542 126.521 87.5591 128.358 94.7738C130.195 101.988 130.519 113.985 129.762 118.092C129.006 122.199 131.383 133.654 131.383 133.654L95.3913 141.977Z" fill="#FEB0A3" stroke-width="1.0px" style="animation-duration: 6s;"></path><path class="strokeCls2" d="M87.3926 92.9121V96.911" stroke="#A7695F" stroke-width="1.0px" stroke-linecap="round" stroke-linejoin="round" style="animation-duration: 6s;"></path><path class="strokeCls2" d="M98.6504 76.106L100.056 80.2128" stroke="#A7695F" stroke-width="1.0px" stroke-linecap="round" stroke-linejoin="round" style="animation-duration: 6s;"></path><path class="strokeCls2" d="M110.088 73.459C110.547 74.7014 111.438 78.9711 111.574 80.2135" stroke="#A7695F" stroke-width="1.0px" stroke-linecap="round" stroke-linejoin="round" style="animation-duration: 6s;"></path><path class="strokeCls2" d="M118.828 79.3359C119.26 80.8245 119.667 82.4106 119.785 83.0905" stroke="#A7695F" stroke-width="1.0px" stroke-linecap="round" stroke-linejoin="round" style="animation-duration: 6s;"></path><path class="fillCls2" d="M88.1888 42.3379C88.1888 42.3379 87.0865 42.2707 86.2305 42.4147C85.5089 42.5359 84.4313 42.8436 84.4313 42.8436C84.0345 42.9951 83.8215 43.2517 83.8755 43.6457L84.3982 47.5224C84.4512 47.9163 84.7864 48.1966 85.1472 48.1483C85.1472 48.1483 86.4956 47.8453 87.0325 47.8056C87.4975 47.7705 88.8999 47.6417 88.8999 47.6417C89.2607 47.5934 89.5097 47.2346 89.4567 46.8406L88.933 42.9582C88.8829 42.569 88.5789 42.3616 88.1888 42.3379Z" fill="#A7695F" stroke-width="1.0px" style="animation-duration: 6s;"></path><path class="fillCls2" d="M76.2589 76.9249C76.7143 76.9325 77.0912 76.5092 77.1007 75.978L77.1954 70.7603C77.2049 70.2301 76.8668 69.8958 76.3876 69.7859C75.8521 69.6693 75.3101 69.5839 74.7646 69.5303C74.7589 69.5776 74.7542 69.625 74.7504 69.6742C74.6472 71.2774 74.3716 74.0936 74.1699 77.0234C75.0364 77.0158 76.2589 76.9249 76.2589 76.9249Z" fill="#A7695F" stroke-width="1.0px" style="animation-duration: 6s;"></path></svg>